<svg width="28" height="28" viewBox="0 0 28 28" fill="none" xmlns="http://www.w3.org/2000/svg">
<path d="M26.122 14C26.122 20.6274 20.7221 26 14.061 26C7.39988 26 2 20.6274 2 14C2 7.37261 7.39988 2.00003 14.061 2.00003C20.7221 2.00003 26.122 7.37261 26.122 14Z" fill="#EB5757"/>
<path d="M23.3546 14.0001C23.3546 19.1072 19.1934 23.2474 14.0603 23.2474C8.92719 23.2474 4.76599 19.1072 4.76599 14.0001C4.76599 8.89294 8.92719 4.75278 14.0603 4.75278C19.1934 4.75278 23.3546 8.89294 23.3546 14.0001Z" fill="#FAEBEB"/>
<path d="M20.7614 14.0001C20.7614 17.682 17.7615 20.6667 14.0609 20.6667C10.3603 20.6667 7.36035 17.682 7.36035 14.0001C7.36035 10.3182 10.3603 7.3334 14.0609 7.3334C17.7615 7.3334 20.7614 10.3182 20.7614 14.0001Z" fill="#EB5757"/>
<path d="M18.4262 14C18.4262 16.3992 16.4714 18.3441 14.06 18.3441C11.6486 18.3441 9.69385 16.3992 9.69385 14C9.69385 11.6009 11.6486 9.65596 14.06 9.65596C16.4714 9.65596 18.4262 11.6009 18.4262 14Z" fill="#FAEBEB"/>
<path d="M16.1786 14.0001C16.1786 15.164 15.2302 16.1076 14.0604 16.1076C12.8905 16.1076 11.9421 15.164 11.9421 14.0001C11.9421 12.8361 12.8905 11.8926 14.0604 11.8926C15.2302 11.8926 16.1786 12.8361 16.1786 14.0001Z" fill="#EB5757"/>
<path fill-rule="evenodd" clip-rule="evenodd" d="M13.1958 25.1399C19.8567 25.1399 25.2568 19.7673 25.2568 13.1399C25.2568 10.045 24.079 7.22381 22.1454 5.09555C24.5868 7.2915 26.1213 10.4675 26.1213 14C26.1213 20.6274 20.7212 26 14.0603 26C10.5099 26 7.31797 24.4736 5.11072 22.0443C7.24966 23.9682 10.0854 25.1399 13.1958 25.1399Z" fill="#333333" fill-opacity="0.1" style="mix-blend-mode:multiply"/>
<path fill-rule="evenodd" clip-rule="evenodd" d="M3.31399 19.4522C2.47396 17.8163 2 15.9632 2 14C2 7.37261 7.40011 2.00003 14.061 2.00003C16.0341 2.00003 17.8965 2.47142 19.5407 3.30717C19.0342 11.9932 12.0441 18.9483 3.31399 19.4522Z" fill="url(#paint0_linear)" fill-opacity="0.4" style="mix-blend-mode:overlay"/>
<defs>
<linearGradient id="paint0_linear" x1="2" y1="2.00003" x2="14.2953" y2="14.5066" gradientUnits="userSpaceOnUse">
<stop stop-color="white"/>
<stop offset="0.983333" stop-color="white" stop-opacity="0.5"/>
</linearGradient>
</defs>
</svg>
