<svg width="28" height="28" viewBox="0 0 28 28" fill="none" xmlns="http://www.w3.org/2000/svg">
<path d="M11.6253 14.5979L6.91773 24.9124C5.93072 27.075 8.58098 29.0398 10.247 27.3806L20.6037 17.066C21.9532 15.7219 21.0326 13.3636 19.1583 13.3636H13.5092C12.703 13.3636 11.9692 13.8444 11.6253 14.5979Z" fill="#F9CB27"/>
<path fill-rule="evenodd" clip-rule="evenodd" d="M17.2508 13.3636L13.4496 18.2562C12.6889 19.2352 11.5396 19.8048 10.3243 19.8048C9.96934 19.8048 9.62914 19.7587 9.30725 19.6729L11.6236 14.5979C11.9678 13.8444 12.7016 13.3636 13.5076 13.3636H17.2508Z" fill="#D26412" fill-opacity="0.7"/>
<path d="M4.20459 15.5236L10.7867 1.22768C11.1319 0.477759 11.8639 0 12.6675 0H21.1629C22.9112 0 23.8816 2.09138 22.7871 3.50014L11.6799 17.796C11.2845 18.3048 10.6872 18.6009 10.0557 18.6009H6.08543C4.55479 18.6009 3.54695 16.9519 4.20459 15.5236Z" fill="#F9CB27"/>
<path fill-rule="evenodd" clip-rule="evenodd" d="M20.5893 0C17.1207 5.62039 12.4204 11.1957 4.38684 15.1276L10.7871 1.22768C11.1323 0.477756 11.8641 0 12.6676 0H20.5893Z" fill="url(#paint0_linear)" fill-opacity="0.2" style="mix-blend-mode:overlay"/>
<defs>
<linearGradient id="paint0_linear" x1="2.26022" y1="1.90943" x2="12.8212" y2="14.8559" gradientUnits="userSpaceOnUse">
<stop stop-color="white"/>
<stop offset="1" stop-color="white" stop-opacity="0.5"/>
</linearGradient>
</defs>
</svg>
