<svg width="28" height="28" viewBox="0 0 28 28" fill="none" xmlns="http://www.w3.org/2000/svg">
<path d="M25.9998 14C25.9998 20.6274 20.6273 26 13.9999 26C7.37254 26 2 20.6274 2 14C2 7.37258 7.37254 2 13.9999 2C20.6273 2 25.9998 7.37258 25.9998 14Z" fill="#AACBA7"/>
<path fill-rule="evenodd" clip-rule="evenodd" d="M13.1113 25.1111C19.7384 25.1111 25.1112 19.7386 25.1112 13.1111C25.1112 10.0239 23.945 7.20891 22.0297 5.08249C24.4671 7.27889 25.9999 10.4605 25.9999 14C25.9999 20.6274 20.6272 26 14 26C10.4601 26 7.27821 24.467 5.08167 22.0287C7.20837 23.9448 10.0237 25.1111 13.1113 25.1111Z" fill="#AACBA7" fill-opacity="0.5" style="mix-blend-mode:multiply"/>
<path fill-rule="evenodd" clip-rule="evenodd" d="M14.001 6.13388C9.65674 6.13388 6.13498 9.65566 6.13498 14C6.13498 18.3443 9.65674 21.8661 14.001 21.8661C18.3454 21.8661 21.8671 18.3443 21.8671 14C21.8671 9.65566 18.3454 6.13388 14.001 6.13388ZM3.255 14C3.255 8.06508 8.06617 3.25388 14.001 3.25388C19.9359 3.25388 24.7471 8.06508 24.7471 14C24.7471 19.9349 19.9359 24.7461 14.001 24.7461C8.06617 24.7461 3.255 19.9349 3.255 14Z" fill="#629E5C"/>
<path fill-rule="evenodd" clip-rule="evenodd" d="M3.30733 19.4522C2.47156 17.8163 2 15.9632 2 14C2 7.37258 7.37277 2 13.9999 2C15.963 2 17.816 2.47139 19.4519 3.30714C18.948 11.9932 11.9932 18.9482 3.30733 19.4522Z" fill="url(#paint0_linear)" fill-opacity="0.3" style="mix-blend-mode:overlay"/>
<path fill-rule="evenodd" clip-rule="evenodd" d="M15.0308 14.7705C15.1424 14.6032 15.1907 14.4125 15.1818 14.2269C15.9238 13.7615 17.0413 13.0514 17.8395 12.5427C17.961 12.4652 17.8672 12.2773 17.7322 12.328C16.813 12.6738 15.5141 13.1636 14.6999 13.4772C14.06 13.1079 10.7015 11.3385 8.57477 10.2217C8.35305 10.1051 8.15055 10.4091 8.34367 10.569C10.3166 12.2013 13.5144 14.8399 13.7947 15.0264C14.2025 15.2979 14.7557 15.1833 15.0308 14.7705ZM13.9996 14.5714C14.315 14.5714 14.571 14.3156 14.571 14C14.571 13.6844 14.315 13.4286 13.9996 13.4286C13.6841 13.4286 13.4282 13.6844 13.4282 14C13.4282 14.3156 13.6841 14.5714 13.9996 14.5714Z" fill="#629E5C" fill-opacity="0.2" style="mix-blend-mode:multiply"/>
<path fill-rule="evenodd" clip-rule="evenodd" d="M14.7349 14.474C14.8465 14.3067 14.8948 14.1161 14.8859 13.9304C15.6279 13.4651 16.7454 12.755 17.5436 12.2462C17.6651 12.1687 17.5713 11.9808 17.4363 12.0316C16.5171 12.3773 15.2182 12.8671 14.404 13.1807C13.7641 12.8115 10.4056 11.042 8.27887 9.92529C8.05715 9.80868 7.85465 10.1127 8.04778 10.2725C10.0207 11.9048 13.2185 14.5434 13.4988 14.73C13.9066 15.0014 14.4598 14.8868 14.7349 14.474ZM14.0004 14.5714C14.3159 14.5714 14.5718 14.3156 14.5718 14C14.5718 13.6844 14.3159 13.4285 14.0004 13.4285C13.6849 13.4285 13.429 13.6844 13.429 14C13.429 14.3156 13.6849 14.5714 14.0004 14.5714Z" fill="#629E5C"/>
<defs>
<linearGradient id="paint0_linear" x1="2" y1="2" x2="14.1481" y2="14.296" gradientUnits="userSpaceOnUse">
<stop stop-color="white"/>
<stop offset="1" stop-color="white" stop-opacity="0.5"/>
</linearGradient>
</defs>
</svg>
